<svg width="28" height="28" viewBox="0 0 28 28" fill="none" xmlns="http://www.w3.org/2000/svg">
<path fill-rule="evenodd" clip-rule="evenodd" d="M23.7744 11.7019L23.8713 12.5722L25.6108 12.3762L25.5128 11.507C24.9796 6.75053 21.2848 3.0592 16.5271 2.5307L15.6568 2.43387L15.4643 4.17337L16.3334 4.2702C20.2733 4.7077 23.3323 7.76437 23.7744 11.7019Z" fill="#2B2B2B"/>
<path fill-rule="evenodd" clip-rule="evenodd" d="M19.6546 11.7839L19.8226 12.6426L21.5399 12.3089L21.3731 11.4502C20.8994 9.02123 19.0257 7.1464 16.5979 6.67506L15.7392 6.50823L15.4044 8.22556L16.2631 8.3924C17.9874 8.72723 19.3186 10.0584 19.6546 11.7839Z" fill="#2B2B2B"/>
<path fill-rule="evenodd" clip-rule="evenodd" d="M15.8686 18.2347C15.2619 18.0247 13.5178 17.3201 11.9229 15.7264C10.4261 14.2296 9.80194 12.5752 9.61877 11.9989L11.6009 8.55607L7.28661 2.6294L6.83044 2.89774C4.98477 3.9804 3.63144 5.33374 2.57094 7.15724L2.50211 7.3439C1.90244 10.5452 3.73527 15.2632 7.05911 19.0852C10.6641 23.2304 15.3448 25.5661 19.9904 25.5661C20.2004 25.5661 20.4116 25.5614 20.6204 25.5521L20.7593 25.5462L20.8794 25.4774C22.7484 24.4309 24.1076 23.0729 25.1529 21.2039L25.4038 20.7547L19.3044 16.2572L15.8686 18.2347Z" fill="#2B2B2B"/>
</svg>
