<svg width="40" height="40" viewBox="0 0 40 40" fill="none" xmlns="http://www.w3.org/2000/svg">
<path d="M40 20C40 8.9543 31.0457 0 20 0C8.9543 0 0 8.9543 0 20C0 31.0457 8.9543 40 20 40C31.0457 40 40 31.0457 40 20Z" fill="#F5CE0F"/>
<path d="M18 24.5H14M16 21.5H14" stroke="white" stroke-width="1.5" stroke-linecap="round"/>
<path d="M22 23C22 22.057 22 21.586 22.293 21.293C22.586 21 23.057 21 24 21C24.943 21 25.414 21 25.707 21.293C26 21.586 26 22.057 26 23C26 23.943 26 24.414 25.707 24.707C25.414 25 24.943 25 24 25C23.057 25 22.586 25 22.293 24.707C22 24.414 22 23.943 22 23Z" stroke="white" stroke-width="1.5"/>
<path d="M30 20C30 16.229 30 14.343 28.828 13.172C27.656 12.001 25.771 12 22 12H18C14.229 12 12.343 12 11.172 13.172C10.001 14.344 10 16.229 10 20C10 23.771 10 25.657 11.172 26.828C12.344 27.999 14.229 28 18 28H22C25.771 28 27.657 28 28.828 26.828C29.482 26.175 29.771 25.3 29.898 24M10 18H15M30 18H19" stroke="white" stroke-width="1.5" stroke-linecap="round"/>
</svg>
