<svg width="40" height="40" viewBox="0 0 40 40" fill="none" xmlns="http://www.w3.org/2000/svg">
<path d="M40 20C40 8.9543 31.0457 0 20 0C8.9543 0 0 8.9543 0 20C0 31.0457 8.9543 40 20 40C31.0457 40 40 31.0457 40 20Z" fill="#F5CE0F"/>
<path d="M29.412 15.8416C29.5759 15.8892 29.7208 15.9869 29.8263 16.1211C29.9318 16.2553 29.9925 16.4191 30 16.5896V25.8206C29.9835 26.0048 29.9094 26.1791 29.7882 26.3187C29.6671 26.4584 29.505 26.5563 29.325 26.5986C26.2742 27.5752 22.9953 27.5794 19.942 26.6106C18.4164 26.1025 16.819 25.8429 15.211 25.8416C13.783 25.861 12.3664 26.0998 11.011 26.5496C10.8476 26.5962 10.6744 26.5962 10.511 26.5496C10.3639 26.4914 10.237 26.3913 10.1462 26.2618C10.0554 26.1322 10.0045 25.9788 10 25.8206V13.5126C10.0167 13.3285 10.0908 13.1544 10.212 13.0147C10.3331 12.8751 10.4951 12.7771 10.675 12.7346C13.726 11.7592 17.0045 11.755 20.058 12.7226C20.7157 12.9417 21.3863 13.1197 22.066 13.2556C24.3762 13.6842 26.7573 13.5219 28.988 12.7836L29.13 12.7506C29.3191 12.7328 29.5081 12.7854 29.6607 12.8984C29.8133 13.0114 29.9188 13.1768 29.9569 13.3628C29.9949 13.5489 29.9629 13.7424 29.867 13.9063C29.771 14.0702 29.6179 14.1928 29.437 14.2506L29.362 14.2756C26.3008 15.2626 23.0082 15.271 19.942 14.2996C18.5375 13.8318 17.0718 13.573 15.592 13.5316C14.2243 13.512 12.8613 13.6946 11.547 14.0736L11.538 24.7906C14.3435 24.067 17.2963 24.1495 20.057 25.0286C22.7718 25.9299 25.6924 26.0089 28.452 25.2556L28.461 16.5886C28.461 16.5886 28.661 15.6966 29.412 15.8406V15.8416ZM26.192 22.7606C26.326 22.7764 26.4539 22.8257 26.5637 22.9041C26.6735 22.9825 26.7617 23.0874 26.8201 23.2091C26.8785 23.3307 26.9052 23.4652 26.8976 23.5999C26.8901 23.7346 26.8486 23.8653 26.777 23.9796C26.6454 24.107 26.4881 24.2049 26.3157 24.2666C26.1432 24.3284 25.9596 24.3526 25.777 24.3376C24.8674 24.4085 23.9533 24.3958 23.046 24.2996C22.9249 24.2862 22.8084 24.2457 22.7051 24.1811C22.6018 24.1166 22.5144 24.0296 22.4493 23.9266C22.3842 23.8237 22.3431 23.7074 22.329 23.5864C22.3149 23.4654 22.3283 23.3428 22.368 23.2276C22.4552 23.0638 22.5925 22.932 22.7597 22.8515C22.9269 22.7709 23.1155 22.7457 23.298 22.7796C24.22 22.87 25.1489 22.8657 26.07 22.7666C26.1104 22.7614 26.1512 22.7593 26.192 22.7606ZM20.02 16.6026C20.7269 16.6231 21.4064 16.8808 21.9491 17.3343C22.4918 17.7878 22.8662 18.4106 23.012 19.1026C23.0848 19.5886 23.0426 20.0848 22.8889 20.5514C22.7351 21.0181 22.4741 21.4422 22.1267 21.7896C21.7794 22.1371 21.3553 22.3983 20.8887 22.5521C20.4221 22.706 19.9259 22.7483 19.44 22.6756C18.8169 22.5479 18.2472 22.2343 17.8059 21.7762C17.3646 21.3181 17.0725 20.7371 16.968 20.1096C16.9183 19.6814 16.9571 19.2475 17.0818 18.8349C17.2066 18.4222 17.4147 18.0395 17.6933 17.7105C17.9719 17.3815 18.315 17.1132 18.7014 16.9221C19.0879 16.731 19.5094 16.6213 19.94 16.5996H20.019L20.02 16.6026ZM19.99 18.1406C19.7655 18.1425 19.5442 18.1939 19.3418 18.2911C19.1395 18.3884 18.9611 18.5291 18.8194 18.7033C18.6778 18.8775 18.5763 19.0808 18.5223 19.2987C18.4683 19.5166 18.463 19.7437 18.507 19.9639C18.5509 20.1841 18.6428 20.3918 18.7763 20.5723C18.9098 20.7528 19.0815 20.9017 19.2792 21.0081C19.4768 21.1146 19.6955 21.1762 19.9197 21.1883C20.1439 21.2005 20.368 21.1631 20.576 21.0786C20.7679 20.9922 20.9405 20.8682 21.0838 20.714C21.227 20.5598 21.338 20.3785 21.4101 20.1807C21.4822 19.983 21.5141 19.7728 21.5037 19.5626C21.4934 19.3524 21.4411 19.1464 21.35 18.9566C21.2207 18.717 21.0307 18.5156 20.7991 18.3725C20.5674 18.2295 20.3022 18.1499 20.03 18.1416H19.99V18.1406ZM15.435 15.0666C15.9431 15.0688 16.4508 15.0972 16.956 15.1516C17.124 15.1696 17.64 15.4046 17.688 15.8376C17.6953 15.9485 17.6793 16.0597 17.6412 16.1641C17.6032 16.2685 17.5437 16.3638 17.4668 16.4439C17.3898 16.5241 17.297 16.5873 17.1943 16.6296C17.0915 16.672 16.9811 16.6924 16.87 16.6896C15.8909 16.6042 14.9061 16.6042 13.927 16.6896C13.7036 16.6894 13.4868 16.6145 13.311 16.4766C13.2169 16.3733 13.1518 16.2469 13.1223 16.1103C13.0928 15.9736 13.0999 15.8316 13.143 15.6986C13.186 15.5657 13.2634 15.4464 13.3674 15.353C13.4714 15.2596 13.5982 15.1953 13.735 15.1666C14.2985 15.0927 14.8667 15.0592 15.435 15.0666Z" fill="white"/>
</svg>
