<svg width="28" height="28" viewBox="0 0 28 28" fill="none" xmlns="http://www.w3.org/2000/svg">
<path fill-rule="evenodd" clip-rule="evenodd" d="M18.228 14.3932C18.228 13.6928 18.7958 13.125 19.4962 13.125H19.5114C20.2118 13.125 20.7796 13.6928 20.7796 14.3932C20.7796 15.0936 20.2118 15.6613 19.5114 15.6613H19.4962C18.7958 15.6613 18.228 15.0936 18.228 14.3932Z" fill="#FFD415"/>
<path fill-rule="evenodd" clip-rule="evenodd" d="M13.0515 14.3932C13.0515 13.6928 13.6193 13.125 14.3197 13.125H14.3349C15.0353 13.125 15.6031 13.6928 15.6031 14.3932C15.6031 15.0936 15.0353 15.6613 14.3349 15.6613H14.3197C13.6193 15.6613 13.0515 15.0936 13.0515 14.3932Z" fill="#FFD415"/>
<path fill-rule="evenodd" clip-rule="evenodd" d="M7.875 14.3932C7.875 13.6928 8.44278 13.125 9.14317 13.125H9.15839C9.85878 13.125 10.4266 13.6928 10.4266 14.3932C10.4266 15.0936 9.85878 15.6613 9.15839 15.6613H9.14317C8.44278 15.6613 7.875 15.0936 7.875 14.3932Z" fill="#FFD415"/>
<path fill-rule="evenodd" clip-rule="evenodd" d="M22.2495 22.2482C18.6852 25.8141 13.4044 26.5845 9.08394 24.5864C8.44613 24.3296 4.31791 25.4729 3.42215 24.5782C2.52639 23.6823 3.67071 19.5535 3.41394 18.9156C1.41491 14.5957 2.18638 9.31304 5.75182 5.74829C10.3033 1.19503 17.698 1.19503 22.2495 5.74829C26.8103 10.3086 26.8009 17.6961 22.2495 22.2482Z" stroke="#FFD415" stroke-width="2" stroke-linecap="round" stroke-linejoin="round"/>
</svg>
