<svg width="29" height="29" viewBox="0 0 29 29" fill="none" xmlns="http://www.w3.org/2000/svg">
<path d="M26.3134 14.5133C26.3134 13.6636 26.246 12.8094 26.1024 11.9735H14.58V16.7866H21.1783C20.9045 18.3389 20.0248 19.7122 18.7365 20.5848V23.7078H22.6731C24.9847 21.5309 26.3134 18.316 26.3134 14.5133Z" fill="#4285F4"/>
<path d="M14.6292 26.3154C17.7919 26.3154 20.459 25.3156 22.4022 23.5898L18.6235 20.7689C17.5721 21.4575 16.2149 21.8475 14.6336 21.8475C11.5743 21.8475 8.98048 19.8604 8.04979 17.1887H4.15038V20.0968C6.14102 23.9093 10.1955 26.3154 14.6292 26.3154Z" fill="#34A853"/>
<path d="M8.06148 16.8047C7.56337 15.3621 7.56337 13.8001 8.06148 12.3576V9.3659H4.11159C2.42502 12.6478 2.42502 16.5144 4.11159 19.7964L8.06148 16.8047Z" fill="#FBBC04"/>
<path d="M14.5874 7.31313C16.2525 7.28825 17.8618 7.89361 19.0677 9.0048L22.4022 5.78316C20.2908 3.86759 17.4884 2.81445 14.5874 2.84762C10.1714 2.84762 6.13306 5.25244 4.15038 9.067L8.02991 11.9735C8.95259 9.29919 11.5404 7.31313 14.5874 7.31313Z" fill="#EA4335"/>
</svg>
