<svg width="24" height="24" viewBox="0 0 24 24" fill="none" xmlns="http://www.w3.org/2000/svg">
<path d="M21.412 7.84165C21.5759 7.88917 21.7208 7.9869 21.8263 8.12108C21.9318 8.25526 21.9925 8.41914 22 8.58965V17.8206C21.9835 18.0048 21.9094 18.1791 21.7882 18.3187C21.6671 18.4584 21.505 18.5563 21.325 18.5986C18.2742 19.5752 14.9953 19.5794 11.942 18.6106C10.4164 18.1025 8.81901 17.8429 7.211 17.8416C5.78299 17.861 4.36644 18.0998 3.011 18.5496C2.84759 18.5962 2.67441 18.5962 2.511 18.5496C2.36386 18.4914 2.23703 18.3913 2.14621 18.2618C2.05538 18.1322 2.00455 17.9788 2 17.8206V5.51265C2.01667 5.32855 2.09082 5.15436 2.21196 5.01473C2.3331 4.8751 2.49509 4.77712 2.675 4.73465C5.72598 3.75923 9.00453 3.75504 12.058 4.72265C12.7157 4.9417 13.3863 5.11971 14.066 5.25565C16.3762 5.68424 18.7573 5.52188 20.988 4.78365L21.13 4.75065C21.3191 4.73277 21.5081 4.78539 21.6607 4.89838C21.8133 5.01138 21.9188 5.17679 21.9569 5.36284C21.9949 5.54888 21.9629 5.74243 21.867 5.9063C21.771 6.07018 21.6179 6.19281 21.437 6.25065L21.362 6.27565C18.3008 7.26264 15.0082 7.27103 11.942 6.29965C10.5375 5.8318 9.07181 5.57303 7.592 5.53165C6.22433 5.51201 4.86126 5.69465 3.547 6.07365L3.538 16.7906C6.34352 16.067 9.29626 16.1495 12.057 17.0286C14.7718 17.9299 17.6924 18.0089 20.452 17.2556L20.461 8.58865C20.461 8.58865 20.661 7.69665 21.412 7.84065V7.84165ZM18.192 14.7606C18.326 14.7764 18.4539 14.8257 18.5637 14.9041C18.6735 14.9825 18.7617 15.0874 18.8201 15.2091C18.8785 15.3307 18.9052 15.4652 18.8976 15.5999C18.8901 15.7346 18.8486 15.8653 18.777 15.9796C18.6454 16.107 18.4881 16.2049 18.3157 16.2666C18.1432 16.3284 17.9596 16.3526 17.777 16.3376C16.8674 16.4085 15.9533 16.3958 15.046 16.2996C14.9249 16.2862 14.8084 16.2457 14.7051 16.1811C14.6018 16.1166 14.5144 16.0296 14.4493 15.9266C14.3842 15.8237 14.3431 15.7074 14.329 15.5864C14.3149 15.4654 14.3283 15.3428 14.368 15.2276C14.4552 15.0638 14.5925 14.932 14.7597 14.8515C14.9269 14.7709 15.1155 14.7457 15.298 14.7796C16.22 14.87 17.1489 14.8657 18.07 14.7666C18.1104 14.7614 18.1512 14.7593 18.192 14.7606ZM12.02 8.60265C12.7269 8.62314 13.4064 8.88085 13.9491 9.33431C14.4918 9.78778 14.8662 10.4106 15.012 11.1026C15.0848 11.5886 15.0426 12.0848 14.8889 12.5514C14.7351 13.0181 14.4741 13.4422 14.1267 13.7896C13.7794 14.1371 13.3553 14.3983 12.8887 14.5521C12.4221 14.706 11.9259 14.7483 11.44 14.6756C10.8169 14.5479 10.2472 14.2343 9.80588 13.7762C9.36459 13.3181 9.07246 12.7371 8.968 12.1096C8.91834 11.6814 8.95708 11.2475 9.08184 10.8349C9.20659 10.4222 9.41469 10.0395 9.69327 9.71052C9.97185 9.38151 10.315 9.11317 10.7014 8.92209C11.0879 8.73101 11.5094 8.62127 11.94 8.59965H12.019L12.02 8.60265ZM11.99 10.1406C11.7655 10.1425 11.5442 10.1939 11.3418 10.2911C11.1395 10.3884 10.9611 10.5291 10.8194 10.7033C10.6778 10.8775 10.5763 11.0808 10.5223 11.2987C10.4683 11.5166 10.463 11.7437 10.507 11.9639C10.5509 12.1841 10.6428 12.3918 10.7763 12.5723C10.9098 12.7528 11.0815 12.9017 11.2792 13.0081C11.4768 13.1146 11.6955 13.1762 11.9197 13.1883C12.1439 13.2005 12.368 13.1631 12.576 13.0786C12.7679 12.9922 12.9405 12.8682 13.0838 12.714C13.227 12.5598 13.338 12.3785 13.4101 12.1807C13.4822 11.983 13.5141 11.7728 13.5037 11.5626C13.4934 11.3524 13.4411 11.1464 13.35 10.9566C13.2207 10.717 13.0307 10.5156 12.7991 10.3725C12.5674 10.2295 12.3022 10.1499 12.03 10.1416H11.99V10.1406ZM7.435 7.06665C7.94313 7.0688 8.4508 7.09717 8.956 7.15165C9.124 7.16965 9.64 7.40465 9.688 7.83765C9.69526 7.94853 9.67933 8.05971 9.64125 8.16409C9.60316 8.26848 9.54375 8.36379 9.46679 8.44395C9.38983 8.5241 9.29702 8.58735 9.19427 8.62965C9.09152 8.67195 8.98108 8.69239 8.87 8.68965C7.89086 8.60425 6.90614 8.60425 5.927 8.68965C5.70364 8.68944 5.48678 8.61445 5.311 8.47665C5.21691 8.37328 5.15181 8.24688 5.1223 8.11026C5.09279 7.97363 5.09992 7.83163 5.14296 7.69864C5.186 7.56566 5.26343 7.44641 5.3674 7.35299C5.47137 7.25956 5.59819 7.19528 5.735 7.16665C6.29854 7.09266 6.86667 7.05924 7.435 7.06665Z" fill="#2B2B2B"/>
</svg>
