<svg width="16" height="16" viewBox="0 0 16 16" fill="none" xmlns="http://www.w3.org/2000/svg">
<path fill-rule="evenodd" clip-rule="evenodd" d="M15.9411 6.0879C15.6152 4.70172 14.1687 4.63014 13.0059 4.57203C12.2743 4.53498 11.5173 4.49792 11.2008 4.17032C10.8783 3.83683 10.6265 3.19764 10.3815 2.5795C9.90412 1.37018 9.36273 0 7.99958 0C6.63727 0 6.09672 1.37018 5.61848 2.5795C5.37431 3.19764 5.12172 3.83683 4.80008 4.17032C4.48266 4.49792 3.72572 4.53498 2.99405 4.57203C1.83129 4.63014 0.384776 4.70172 0.058933 6.0879C-0.250071 7.40334 0.715672 8.19917 1.56775 8.90152C2.15039 9.38155 2.70104 9.83631 2.82313 10.3921C2.94185 10.9319 2.76335 11.6292 2.59075 12.3046C2.29437 13.466 1.95758 14.7814 3.08162 15.6295C3.43272 15.8947 3.78887 16 4.14082 16C4.9028 16 5.64542 15.5082 6.28111 15.0871C6.86965 14.698 7.4784 14.2946 7.99958 14.2946C8.52076 14.2946 9.13035 14.698 9.71805 15.0871C10.6484 15.7027 11.8053 16.4674 12.9192 15.6295C14.0433 14.7814 13.7065 13.4651 13.4093 12.303C13.2366 11.6284 13.059 10.9311 13.1769 10.3921C13.299 9.83631 13.8496 9.38239 14.4323 8.90152C15.2843 8.19917 16.2501 7.40334 15.9411 6.0879Z" fill="#FFD415"/>
</svg>
