<svg width="24" height="24" viewBox="0 0 24 24" fill="none" xmlns="http://www.w3.org/2000/svg">
<path d="M6.75 8.25C6.75 6.85761 7.30312 5.52226 8.28769 4.53769C9.27226 3.55312 10.6076 3 12 3C13.3924 3 14.7277 3.55312 15.7123 4.53769C16.6969 5.52226 17.25 6.85761 17.25 8.25C17.25 8.44891 17.329 8.63968 17.4697 8.78033C17.6103 8.92098 17.8011 9 18 9C18.1989 9 18.3897 8.92098 18.5303 8.78033C18.671 8.63968 18.75 8.44891 18.75 8.25C18.7499 7.09885 18.4554 5.96685 17.8945 4.96159C17.3336 3.95634 16.5249 3.11124 15.5453 2.50661C14.5657 1.90199 13.4478 1.55793 12.2978 1.50715C11.1477 1.45637 10.0038 1.70055 8.97477 2.21647C7.9457 2.7324 7.06568 3.50293 6.41835 4.45483C5.77102 5.40673 5.37789 6.50837 5.27632 7.65503C5.17476 8.8017 5.36813 9.95528 5.83807 11.0061C6.30801 12.057 7.03889 12.9702 7.96125 13.659C8.75218 14.2498 9.66309 14.66 10.6298 14.8605C10.764 15.1617 10.9938 15.4102 11.2836 15.5677C11.5733 15.7251 11.9069 15.7827 12.2327 15.7315C12.5584 15.6803 12.8583 15.5232 13.0857 15.2844C13.3132 15.0457 13.4557 14.7386 13.4911 14.4108C13.5265 14.0829 13.4529 13.7525 13.2816 13.4707C13.1104 13.1889 12.851 12.9714 12.5437 12.8518C12.2363 12.7322 11.8982 12.7173 11.5815 12.8092C11.2648 12.9012 10.9872 13.0949 10.7917 13.3605C9.64094 13.0883 8.61573 12.4356 7.88217 11.5081C7.14861 10.5806 6.74968 9.43255 6.75 8.25ZM7.5 8.25C7.50029 7.42214 7.72895 6.61041 8.16081 5.90412C8.59268 5.19784 9.211 4.62437 9.94775 4.24682C10.6845 3.86927 11.5111 3.70228 12.3367 3.76421C13.1622 3.82615 13.9547 4.11461 14.6268 4.59787C15.299 5.08112 15.8248 5.74043 16.1465 6.50325C16.4681 7.26607 16.5731 8.10283 16.4499 8.92147C16.3266 9.7401 15.98 10.5089 15.448 11.1432C14.916 11.7775 14.2194 12.2528 13.4347 12.5167C13.0312 12.1827 12.5238 12 12 12C11.4548 12 10.9552 12.1942 10.5652 12.5167C9.67181 12.2162 8.89531 11.6427 8.34533 10.8771C7.79535 10.1116 7.49966 9.19263 7.5 8.25ZM12 5.25C11.2044 5.25 10.4413 5.56607 9.87868 6.12868C9.31607 6.69129 9 7.45435 9 8.25C9 9.04565 9.31607 9.80871 9.87868 10.3713C10.4413 10.9339 11.2044 11.25 12 11.25C12.7956 11.25 13.5587 10.9339 14.1213 10.3713C14.6839 9.80871 15 9.04565 15 8.25C15 7.45435 14.6839 6.69129 14.1213 6.12868C13.5587 5.56607 12.7956 5.25 12 5.25ZM5.625 13.5H6.64425C7.24715 14.116 7.95172 14.6234 8.727 15H5.625C5.32663 15 5.04048 15.1185 4.8295 15.3295C4.61853 15.5405 4.5 15.8266 4.5 16.125V16.5C4.5 17.6047 5.205 18.7118 6.56925 19.5795C7.9245 20.442 9.84225 21 11.9992 21C14.1578 21 16.0755 20.442 17.4307 19.5795C18.7957 18.7125 19.5 17.604 19.5 16.5V16.125C19.5 15.8266 19.3815 15.5405 19.1705 15.3295C18.9595 15.1185 18.6734 15 18.375 15H14.1225C14.2941 14.5147 14.2941 13.9853 14.1225 13.5H18.375C19.0712 13.5 19.7389 13.7766 20.2312 14.2688C20.7234 14.7611 21 15.4288 21 16.125V16.5C21 18.2948 19.8577 19.8127 18.2362 20.8447C16.6058 21.8827 14.3985 22.5 12 22.5C9.6015 22.5 7.395 21.8827 5.76375 20.8447C4.14225 19.8127 3 18.2948 3 16.5V16.125C3 15.4288 3.27656 14.7611 3.76884 14.2688C4.26113 13.7766 4.92881 13.5 5.625 13.5Z" fill="black"/>
</svg>
