<svg width="25" height="24" viewBox="0 0 25 24" fill="none" xmlns="http://www.w3.org/2000/svg">
<path d="M15.344 20H7C5.621 20 4.5 18.879 4.5 17.5C4.5 16.121 5.621 15 7 15H14C15.93 15 17.5 13.43 17.5 11.5C17.5 9.57 15.93 8 14 8H9.139C8.77186 8.71994 8.31707 9.39171 7.785 10H14C14.827 10 15.5 10.673 15.5 11.5C15.5 12.327 14.827 13 14 13H7C4.519 13 2.5 15.019 2.5 17.5C2.5 19.981 4.519 22 7 22H16.593C16.1022 21.3828 15.6832 20.7119 15.344 20ZM5.5 2C3.846 2 2.5 3.346 2.5 5C2.5 8.188 5.5 10 5.5 10C5.5 10 8.5 8.187 8.5 5C8.5 3.346 7.154 2 5.5 2ZM5.5 6.5C5.30295 6.49993 5.10785 6.46106 4.92582 6.38559C4.7438 6.31012 4.57842 6.19954 4.43913 6.06016C4.29984 5.92078 4.18937 5.75533 4.11403 5.57325C4.03868 5.39118 3.99993 5.19605 4 4.999C4.00007 4.80195 4.03894 4.60685 4.11441 4.42482C4.18988 4.2428 4.30046 4.07742 4.43984 3.93813C4.57922 3.79884 4.74467 3.68837 4.92675 3.61303C5.10882 3.53768 5.30395 3.49893 5.501 3.499C5.89896 3.49913 6.28056 3.65735 6.56187 3.93884C6.84317 4.22033 7.00113 4.60204 7.001 5C7.00087 5.39796 6.84265 5.77956 6.56116 6.06087C6.27967 6.34217 5.89796 6.50013 5.5 6.5Z" fill="black"/>
<path d="M19.5 14C17.846 14 16.5 15.346 16.5 17C16.5 20.188 19.5 22 19.5 22C19.5 22 22.5 20.187 22.5 17C22.5 15.346 21.154 14 19.5 14ZM19.5 18.5C19.303 18.4999 19.1078 18.4611 18.9258 18.3856C18.7438 18.3101 18.5784 18.1995 18.4391 18.0602C18.2998 17.9208 18.1894 17.7553 18.114 17.5733C18.0387 17.3912 17.9999 17.196 18 16.999C18.0001 16.802 18.0389 16.6068 18.1144 16.4248C18.1899 16.2428 18.3005 16.0774 18.4398 15.9381C18.5792 15.7988 18.7447 15.6884 18.9267 15.613C19.1088 15.5377 19.304 15.4989 19.501 15.499C19.899 15.4991 20.2806 15.6573 20.5619 15.9388C20.8432 16.2203 21.0011 16.602 21.001 17C21.0009 17.398 20.8427 17.7796 20.5612 18.0609C20.2797 18.3422 19.898 18.5001 19.5 18.5Z" fill="black"/>
</svg>
